<svg xmlns="http://www.w3.org/2000/svg" viewBox="0 0 62 62" width="51" height="51">
  <circle cx="31" cy="31" r="30" fill="#00704A"/>
  <path d="M47.6 31c0 9.2-7.4 16.6-16.6 16.6S14.4 40.2 14.4 31 21.8 14.4 31 14.4 47.6 21.8 47.6 31zm-16.6 12.8c7.1 0 12.8-5.7 12.8-12.8S38.1 18.2 31 18.2 18.2 23.9 18.2 31 23.9 43.8 31 43.8z" fill="#fff"/>
  <path d="M31 5C16.6 5 5 16.6 5 31s11.6 26 26 26 26-11.6 26-26S45.4 5 31 5zm0-5c17 0 31 14 31 31S48 62 31 62 0 48 0 31 14 0 31 0z" fill="#fff"/>
<svg class="block" xmlns="http://www.w3.org/2000/svg" width="100%" height="100%" viewBox="0 0 62 62" fill="none">
  <circle cx="31" cy="31" r="31" fill="#00704A"/>
  <path fill-rule="evenodd" clip-rule="evenodd" d="M31 5C16.6405 5 5 16.6405 5 31C5 45.3595 16.6405 57 31 57C45.3595 57 57 45.3595 57 31C57 16.6405 45.3595 5 31 5ZM31 0C14.0034 0 0 14.0034 0 31C0 47.9966 14.0034 62 31 62C47.9966 62 62 47.9966 62 31C62 14.0034 47.9966 0 31 0Z" fill="white"/>
  <path fill-rule="evenodd" clip-rule="evenodd" d="M34.0321 15.9321C34.0321 15.9321 33.7398 16.3198 33.4474 16.3198C33.155 16.3198 32.8627 16.0274 32.8627 16.0274C32.8627 16.0274 32.2826 16.3198 31.7025 16.4167C31.1224 16.5137 30.6378 16.4167 30.6378 16.4167C30.6378 16.4167 30.2501 16.7091 29.8624 16.7091C29.4747 16.7091 29.087 16.4167 29.087 16.4167C29.087 16.4167 28.5069 16.5137 28.0237 16.4167C27.5405 16.3198 27.0573 16.0274 27.0573 16.0274C27.0573 16.0274 26.765 16.3198 26.4726 16.3198C26.1803 16.3198 25.8879 15.9321 25.8879 15.9321C25.8879 15.9321 25.4033 16.2244 25.0156 16.2244C24.6279 16.2244 24.2402 15.8367 24.2402 15.8367C24.2402 15.8367 23.7571 16.1291 23.3694 16.1291C22.9817 16.1291 22.5939 15.7414 22.5939 15.7414C22.5939 15.7414 22.1093 16.0337 21.7216 16.0337C21.3339 16.0337 20.9462 15.646 20.9462 15.646C20.9462 15.646 20.4631 15.9383 20.0754 15.9383C19.6877 15.9383 19.3 15.5506 19.3 15.5506C19.3 15.5506 18.8168 15.843 18.4291 15.843C18.0414 15.843 17.6537 15.4553 17.6537 15.4553C17.6537 15.4553 17.1705 15.7476 16.7828 15.7476C16.3951 15.7476 16.0074 15.3599 16.0074 15.3599C16.0074 15.3599 15.5243 15.6523 15.1366 15.6523C14.7489 15.6523 14.3612 15.2646 14.3612 15.2646C14.3612 15.2646 13.878 15.5569 13.4903 15.5569C13.1026 15.5569 12.7149 15.1692 12.7149 15.1692C12.7149 15.1692 12.2318 15.4616 11.8441 15.4616C11.4564 15.4616 11.0687 15.0739 11.0687 15.0739C11.0687 15.0739 10.5855 15.3662 10.1978 15.3662C9.81009 15.3662 9.42239 14.9785 9.42239 14.9785C9.42239 14.9785 8.93924 15.2709 8.55154 15.2709C8.16384 15.2709 7.77614 14.8832 7.77614 14.8832C7.77614 14.8832 7.29299 15.1755 6.90529 15.1755C6.51759 15.1755 6.12989 14.7878 6.12989 14.7878L5.25781 15.0802V47.0153L6.12989 47.3077C6.12989 47.3077 6.51759 46.92 6.90529 46.92C7.29299 46.92 7.77614 47.2123 7.77614 47.2123C7.77614 47.2123 8.16384 46.8246 8.55154 46.8246C8.93924 46.8246 9.42239 47.117 9.42239 47.117C9.42239 47.117 9.81009 46.7293 10.1978 46.7293C10.5855 46.7293 11.0687 47.0216 11.0687 47.0216C11.0687 47.0216 11.4564 46.6339 11.8441 46.6339C12.2318 46.6339 12.7149 46.9263 12.7149 46.9263C12.7149 46.9263 13.1026 46.5386 13.4903 46.5386C13.878 46.5386 14.3612 46.8309 14.3612 46.8309C14.3612 46.8309 14.7489 46.4432 15.1366 46.4432C15.5243 46.4432 16.0074 46.7356 16.0074 46.7356C16.0074 46.7356 16.3951 46.3479 16.7828 46.3479C17.1705 46.3479 17.6537 46.6402 17.6537 46.6402C17.6537 46.6402 18.0414 46.2525 18.4291 46.2525C18.8168 46.2525 19.3 46.5449 19.3 46.5449C19.3 46.5449 19.6877 46.1572 20.0754 46.1572C20.4631 46.1572 20.9462 46.4495 20.9462 46.4495C20.9462 46.4495 21.3339 46.0618 21.7216 46.0618C22.1093 46.0618 22.5939 46.3542 22.5939 46.3542C22.5939 46.3542 22.9817 45.9665 23.3694 45.9665C23.7571 45.9665 24.2402 46.2588 24.2402 46.2588C24.2402 46.2588 24.6279 45.8711 25.0156 45.8711C25.4033 45.8711 25.8879 46.1635 25.8879 46.1635C25.8879 46.1635 26.1803 45.7758 26.4726 45.7758C26.765 45.7758 27.0573 46.0681 27.0573 46.0681C27.0573 46.0681 27.5405 45.7758 28.0237 45.8727C28.5069 45.9697 29.087 46.0681 29.087 46.0681C29.087 46.0681 29.4747 46.3604 29.8624 46.3604C30.2501 46.3604 30.6378 46.0681 30.6378 46.0681C30.6378 46.0681 31.1224 45.9711 31.7025 45.8742C32.2826 45.7772 32.8627 46.0681 32.8627 46.0681C32.8627 46.0681 33.155 46.3604 33.4474 46.3604C33.7398 46.3604 34.0321 45.9727 34.0321 45.9727L34.9042 46.2651V14.33L34.0321 14.6223V15.9321Z" fill="white"/>
  <path fill-rule="evenodd" clip-rule="evenodd" d="M47.6 31C47.6 40.1727 40.1727 47.6 31 47.6C21.8273 47.6 14.4 40.1727 14.4 31C14.4 21.8273 21.8273 14.4 31 14.4C40.1727 14.4 47.6 21.8273 47.6 31ZM31 43.8C38.0692 43.8 43.8 38.0692 43.8 31C43.8 23.9308 38.0692 18.2 31 18.2C23.9308 18.2 18.2 23.9308 18.2 31C18.2 38.0692 23.9308 43.8 31 43.8Z" fill="white"/>
</svg> 